<svg id="visual" viewBox="0 0 900 600" width="900" height="600" xmlns="http://www.w3.org/2000/svg" xmlns:xlink="http://www.w3.org/1999/xlink" version="1.1"><rect x="0" y="0" width="900" height="600" fill="#CDB4DB"></rect><g transform="translate(462.94794713082933 318.23096962525364)"><path d="M278.2 -324.6C355 -267.1 408 -174.2 408.3 -84.9C408.6 4.3 356.3 89.9 303.3 168.9C250.3 247.9 196.6 320.4 124.3 350.6C52 380.9 -39 369 -100.7 325.4C-162.4 281.8 -194.9 206.5 -259.4 131.8C-323.9 57.1 -420.5 -17 -432.8 -98.8C-445.2 -180.5 -373.3 -269.9 -287.1 -325.7C-201 -381.5 -100.5 -403.8 0.1 -403.9C100.7 -404 201.4 -382 278.2 -324.6" fill="#FFAFCC"></path></g></svg>